<?xml version="1.0" encoding="UTF-8" standalone="no"?>
<!DOCTYPE svg PUBLIC "-//W3C//DTD SVG 1.1//EN" "http://www.w3.org/Graphics/SVG/1.1/DTD/svg11.dtd">
<svg width="100%" height="100%" viewBox="0 0 1920 674" version="1.1" xmlns="http://www.w3.org/2000/svg" xmlns:xlink="http://www.w3.org/1999/xlink" xml:space="preserve" xmlns:serif="http://www.serif.com/" style="fill-rule:evenodd;clip-rule:evenodd;stroke-linejoin:round;stroke-miterlimit:2;">
    <g transform="matrix(1,0,0,1,-2.09045,-65.3147)">
        <g id="logo">
            <g transform="matrix(1.32124,-0.719664,0.723303,1.32792,-302.27,236.265)">
                <path d="M541.453,262.144C532.257,244.821 512.657,245.473 522.176,266.172C536.789,297.949 535.947,320.388 522.123,354.212C515.123,371.34 535.014,379.225 541.453,360.92C557.102,316.436 553.043,283.975 541.453,262.144Z" style="fill:rgb(92,201,227);"/>
            </g>
            <g transform="matrix(2.95886,-1.61165,1.6198,2.97382,-1381.84,163.782)">
                <path d="M537.869,261.645C531.973,251.565 522.751,252.74 528.595,263.602C545.56,295.136 541.968,323.862 527.507,358.276C524.427,365.605 532.176,370.563 537.664,358.867C557.695,316.176 550.347,282.981 537.869,261.645Z" style="fill:rgb(92,201,227);"/>
            </g>
            <g transform="matrix(1.10798,0.296882,-0.296882,1.10798,117.076,-141.31)">
                <path d="M470,309.875C470,291.179 454.821,276 436.125,276L103.875,276C85.179,276 70,291.179 70,309.875L70,642.125C70,660.821 85.179,676 103.875,676L436.125,676C454.821,676 470,660.821 470,642.125L470,309.875ZM430,507.856C430,501.313 424.687,496 418.144,496L301.856,496C295.313,496 290,501.313 290,507.856L290,624.144C290,630.687 295.313,636 301.856,636L418.144,636C424.687,636 430,630.687 430,624.144L430,507.856ZM250,507.856C250,501.313 244.687,496 238.144,496L121.856,496C115.313,496 110,501.313 110,507.856L110,624.144C110,630.687 115.313,636 121.856,636L238.144,636C244.687,636 250,630.687 250,624.144L250,507.856ZM430,327.856C430,321.313 424.687,316 418.144,316L301.856,316C295.313,316 290,321.313 290,327.856L290,444.144C290,450.687 295.313,456 301.856,456L418.144,456C424.687,456 430,450.687 430,444.144L430,327.856ZM250,327.856C250,321.313 244.687,316 238.144,316L121.856,316C115.313,316 110,321.313 110,327.856L110,444.144C110,450.687 115.313,456 121.856,456L238.144,456C244.687,456 250,450.687 250,444.144L250,327.856Z" style="fill:rgb(92,201,227);"/>
            </g>
        </g>
        <g id="font" transform="matrix(40.8697,0,0,40.8697,-39540.1,-17522.6)">
            <g id="g" transform="matrix(12,0,0,12,990.662,441.562)">
                <path d="M0.165,0.198C0.138,0.198 0.112,0.196 0.088,0.193C0.064,0.189 0.043,0.183 0.025,0.174C0.007,0.165 -0.007,0.155 -0.017,0.142C-0.027,0.129 -0.032,0.113 -0.032,0.094C-0.031,0.072 -0.025,0.054 -0.012,0.041C0.001,0.028 0.019,0.021 0.042,0.021C0.055,0.021 0.068,0.023 0.079,0.028C0.09,0.033 0.1,0.04 0.109,0.05C0.104,0.054 0.099,0.059 0.096,0.066C0.093,0.072 0.091,0.079 0.091,0.088C0.091,0.106 0.099,0.119 0.117,0.127C0.134,0.135 0.159,0.139 0.193,0.139C0.216,0.139 0.239,0.136 0.262,0.129C0.284,0.122 0.304,0.11 0.319,0.095C0.334,0.08 0.341,0.06 0.341,0.035C0.342,0.013 0.331,-0 0.31,-0.006C0.288,-0.011 0.252,-0.013 0.203,-0.013C0.174,-0.013 0.148,-0.016 0.127,-0.021C0.105,-0.025 0.088,-0.034 0.077,-0.045C0.066,-0.055 0.06,-0.07 0.06,-0.089C0.061,-0.108 0.068,-0.128 0.081,-0.147C0.094,-0.166 0.111,-0.181 0.132,-0.194C0.107,-0.205 0.087,-0.221 0.073,-0.242C0.059,-0.263 0.052,-0.288 0.052,-0.319C0.052,-0.366 0.063,-0.405 0.085,-0.436C0.107,-0.466 0.137,-0.49 0.174,-0.506C0.211,-0.522 0.251,-0.53 0.294,-0.53C0.314,-0.53 0.331,-0.529 0.344,-0.526C0.357,-0.523 0.369,-0.521 0.38,-0.519C0.391,-0.516 0.402,-0.515 0.413,-0.515C0.442,-0.515 0.464,-0.522 0.477,-0.536C0.49,-0.549 0.497,-0.566 0.497,-0.585C0.497,-0.6 0.492,-0.616 0.482,-0.632C0.491,-0.639 0.5,-0.644 0.51,-0.649C0.52,-0.653 0.53,-0.655 0.541,-0.655C0.556,-0.655 0.568,-0.65 0.577,-0.64C0.586,-0.629 0.59,-0.616 0.59,-0.6C0.59,-0.579 0.584,-0.56 0.572,-0.541C0.56,-0.522 0.543,-0.505 0.522,-0.493C0.501,-0.48 0.476,-0.471 0.449,-0.467C0.456,-0.456 0.461,-0.444 0.465,-0.431C0.468,-0.418 0.47,-0.403 0.47,-0.387C0.47,-0.343 0.459,-0.305 0.438,-0.274C0.416,-0.243 0.387,-0.219 0.35,-0.203C0.313,-0.186 0.272,-0.178 0.227,-0.178C0.22,-0.178 0.214,-0.178 0.208,-0.179C0.201,-0.179 0.195,-0.179 0.188,-0.18C0.181,-0.175 0.176,-0.17 0.171,-0.164C0.166,-0.157 0.164,-0.149 0.164,-0.139C0.164,-0.125 0.172,-0.117 0.187,-0.114C0.202,-0.111 0.225,-0.109 0.256,-0.109L0.312,-0.109C0.363,-0.109 0.399,-0.099 0.422,-0.081C0.444,-0.062 0.455,-0.036 0.455,-0.003C0.455,0.03 0.446,0.059 0.429,0.085C0.411,0.11 0.388,0.13 0.36,0.147C0.331,0.164 0.3,0.176 0.266,0.185C0.231,0.194 0.198,0.198 0.165,0.198ZM0.244,-0.228C0.272,-0.228 0.295,-0.236 0.312,-0.253C0.329,-0.27 0.341,-0.29 0.349,-0.315C0.357,-0.339 0.361,-0.363 0.361,-0.386C0.361,-0.413 0.354,-0.435 0.341,-0.452C0.328,-0.469 0.307,-0.478 0.278,-0.478C0.257,-0.478 0.239,-0.474 0.224,-0.465C0.209,-0.456 0.196,-0.443 0.187,-0.428C0.178,-0.412 0.171,-0.394 0.167,-0.374C0.162,-0.354 0.16,-0.334 0.16,-0.313C0.16,-0.286 0.167,-0.266 0.182,-0.251C0.197,-0.236 0.217,-0.228 0.244,-0.228Z" style="fill:rgb(92,201,227);fill-rule:nonzero;"/>
            </g>
            <g id="r" transform="matrix(12,0,0,12,996.878,441.562)">
                <path d="M0.029,0.012L0.129,-0.51L0.224,-0.522L0.212,-0.432C0.225,-0.461 0.244,-0.484 0.269,-0.503C0.294,-0.521 0.323,-0.53 0.354,-0.53C0.387,-0.53 0.411,-0.52 0.426,-0.501C0.44,-0.482 0.448,-0.458 0.448,-0.43C0.448,-0.397 0.439,-0.368 0.421,-0.344C0.403,-0.32 0.379,-0.308 0.35,-0.308C0.342,-0.308 0.334,-0.309 0.326,-0.312C0.317,-0.315 0.311,-0.319 0.306,-0.326C0.315,-0.337 0.322,-0.351 0.327,-0.368C0.332,-0.384 0.335,-0.399 0.335,-0.412C0.335,-0.425 0.332,-0.435 0.327,-0.442C0.321,-0.449 0.312,-0.453 0.299,-0.453C0.283,-0.453 0.269,-0.447 0.257,-0.436C0.245,-0.424 0.235,-0.409 0.227,-0.391C0.219,-0.373 0.213,-0.354 0.208,-0.334C0.203,-0.313 0.198,-0.295 0.195,-0.278L0.146,-0L0.029,0.012Z" style="fill:rgb(92,201,227);fill-rule:nonzero;"/>
            </g>
            <g id="i" transform="matrix(12,0,0,12,1001.87,441.562)">
                <path d="M0.098,0.02C0.077,0.02 0.06,0.014 0.048,0.002C0.036,-0.01 0.03,-0.027 0.03,-0.048C0.03,-0.056 0.031,-0.066 0.032,-0.077C0.033,-0.088 0.035,-0.1 0.037,-0.113C0.039,-0.125 0.041,-0.136 0.044,-0.148C0.046,-0.159 0.048,-0.168 0.049,-0.176L0.117,-0.51L0.231,-0.522L0.147,-0.104C0.146,-0.099 0.145,-0.092 0.144,-0.084C0.143,-0.075 0.142,-0.068 0.142,-0.062C0.142,-0.052 0.145,-0.044 0.15,-0.038C0.155,-0.032 0.162,-0.029 0.172,-0.028C0.168,-0.011 0.159,0.001 0.145,0.009C0.13,0.016 0.115,0.02 0.098,0.02ZM0.199,-0.598C0.178,-0.598 0.16,-0.603 0.146,-0.614C0.132,-0.624 0.125,-0.639 0.125,-0.66C0.125,-0.682 0.132,-0.698 0.147,-0.709C0.162,-0.719 0.18,-0.724 0.201,-0.724C0.222,-0.724 0.24,-0.719 0.254,-0.709C0.268,-0.698 0.275,-0.683 0.275,-0.662C0.275,-0.64 0.268,-0.624 0.253,-0.614C0.238,-0.603 0.22,-0.598 0.199,-0.598Z" style="fill:rgb(92,201,227);fill-rule:nonzero;"/>
            </g>
            <g id="d" transform="matrix(12,0,0,12,1004.93,441.562)">
                <path d="M0.174,0.02C0.14,0.02 0.113,0.012 0.092,-0.005C0.07,-0.021 0.055,-0.043 0.046,-0.072C0.036,-0.1 0.031,-0.132 0.031,-0.169C0.031,-0.218 0.038,-0.265 0.052,-0.309C0.065,-0.352 0.084,-0.391 0.109,-0.424C0.133,-0.457 0.162,-0.483 0.196,-0.502C0.23,-0.521 0.267,-0.53 0.306,-0.53C0.326,-0.53 0.344,-0.528 0.361,-0.525C0.377,-0.521 0.394,-0.515 0.413,-0.508L0.506,-0.494C0.494,-0.43 0.482,-0.366 0.47,-0.301C0.457,-0.236 0.444,-0.17 0.43,-0.104C0.429,-0.098 0.428,-0.091 0.427,-0.083C0.426,-0.075 0.425,-0.068 0.425,-0.062C0.425,-0.052 0.428,-0.044 0.433,-0.038C0.438,-0.032 0.445,-0.029 0.456,-0.028C0.453,-0.017 0.447,-0.008 0.44,-0.001C0.432,0.007 0.423,0.012 0.414,0.015C0.404,0.018 0.393,0.02 0.381,0.02C0.363,0.02 0.348,0.015 0.335,0.006C0.322,-0.004 0.315,-0.018 0.313,-0.037C0.296,-0.02 0.275,-0.007 0.252,0.004C0.228,0.015 0.202,0.02 0.174,0.02ZM0.218,-0.04C0.243,-0.04 0.264,-0.048 0.28,-0.065C0.295,-0.082 0.308,-0.102 0.317,-0.128C0.326,-0.153 0.333,-0.177 0.338,-0.2L0.382,-0.439C0.369,-0.45 0.355,-0.458 0.341,-0.463C0.326,-0.468 0.313,-0.47 0.301,-0.47C0.28,-0.47 0.262,-0.464 0.246,-0.452C0.229,-0.44 0.215,-0.424 0.203,-0.403C0.19,-0.382 0.18,-0.358 0.172,-0.331C0.163,-0.304 0.157,-0.274 0.153,-0.244C0.149,-0.213 0.147,-0.181 0.147,-0.15C0.147,-0.119 0.152,-0.093 0.162,-0.072C0.172,-0.051 0.191,-0.04 0.218,-0.04ZM0.504,-0.484L0.394,-0.492C0.401,-0.529 0.407,-0.566 0.412,-0.603C0.417,-0.64 0.419,-0.672 0.42,-0.699C0.42,-0.707 0.42,-0.714 0.42,-0.721C0.419,-0.728 0.418,-0.734 0.417,-0.74C0.423,-0.744 0.431,-0.747 0.44,-0.75C0.449,-0.753 0.459,-0.754 0.47,-0.754C0.487,-0.754 0.503,-0.749 0.518,-0.739C0.533,-0.728 0.54,-0.71 0.54,-0.683C0.54,-0.676 0.538,-0.661 0.535,-0.64C0.531,-0.619 0.526,-0.594 0.521,-0.566C0.516,-0.538 0.51,-0.511 0.504,-0.484Z" style="fill:rgb(92,201,227);fill-rule:nonzero;"/>
            </g>
            <g id="l" transform="matrix(12,0,0,12,1011.39,441.562)">
                <path d="M0.097,0.02C0.076,0.02 0.059,0.014 0.047,0.002C0.034,-0.01 0.028,-0.027 0.028,-0.048C0.028,-0.055 0.029,-0.064 0.03,-0.074C0.031,-0.084 0.033,-0.096 0.036,-0.111C0.038,-0.126 0.041,-0.144 0.046,-0.166C0.051,-0.188 0.056,-0.214 0.062,-0.245C0.068,-0.276 0.075,-0.312 0.084,-0.354C0.093,-0.396 0.103,-0.444 0.114,-0.498C0.121,-0.536 0.126,-0.573 0.131,-0.61C0.136,-0.646 0.138,-0.676 0.138,-0.701C0.138,-0.709 0.138,-0.716 0.137,-0.723C0.136,-0.729 0.135,-0.735 0.134,-0.74C0.141,-0.744 0.149,-0.747 0.158,-0.75C0.167,-0.753 0.177,-0.754 0.187,-0.754C0.204,-0.754 0.221,-0.749 0.236,-0.739C0.251,-0.728 0.258,-0.71 0.258,-0.684C0.258,-0.679 0.257,-0.668 0.254,-0.652C0.251,-0.636 0.248,-0.618 0.244,-0.597C0.24,-0.576 0.236,-0.554 0.232,-0.532C0.227,-0.509 0.223,-0.489 0.22,-0.471C0.204,-0.394 0.191,-0.331 0.181,-0.282C0.171,-0.233 0.163,-0.194 0.158,-0.166C0.152,-0.138 0.148,-0.117 0.146,-0.104C0.143,-0.091 0.142,-0.081 0.141,-0.076C0.14,-0.071 0.14,-0.066 0.14,-0.062C0.14,-0.052 0.142,-0.044 0.148,-0.038C0.153,-0.032 0.16,-0.029 0.17,-0.028C0.168,-0.017 0.163,-0.008 0.156,-0.001C0.148,0.007 0.139,0.012 0.129,0.015C0.119,0.018 0.108,0.02 0.097,0.02Z" style="fill:rgb(92,201,227);fill-rule:nonzero;"/>
            </g>
        </g>
    </g>
</svg>
