<?xml version="1.0" encoding="UTF-8" standalone="no"?>
<!DOCTYPE svg PUBLIC "-//W3C//DTD SVG 1.1//EN" "http://www.w3.org/Graphics/SVG/1.1/DTD/svg11.dtd">
<svg width="100%" height="100%" viewBox="0 0 800 800" version="1.1" xmlns="http://www.w3.org/2000/svg" xmlns:xlink="http://www.w3.org/1999/xlink" xml:space="preserve" xmlns:serif="http://www.serif.com/" style="fill-rule:evenodd;clip-rule:evenodd;stroke-linejoin:round;stroke-miterlimit:2;">
    <g transform="matrix(1.32124,-0.719664,0.723303,1.32792,-302.27,236.265)">
        <path d="M541.453,262.144C532.257,244.821 512.657,245.473 522.176,266.172C536.789,297.949 535.947,320.388 522.123,354.212C515.123,371.34 535.014,379.225 541.453,360.92C557.102,316.436 553.043,283.975 541.453,262.144Z" style="fill:rgb(92,201,227);"/>
    </g>
    <g transform="matrix(2.95886,-1.61165,1.6198,2.97382,-1381.84,163.782)">
        <path d="M537.869,261.645C531.973,251.565 522.751,252.74 528.595,263.602C545.56,295.136 541.968,323.862 527.507,358.276C524.427,365.605 532.176,370.563 537.664,358.867C557.695,316.176 550.347,282.981 537.869,261.645Z" style="fill:rgb(92,201,227);"/>
    </g>
    <g transform="matrix(1.10798,0.296882,-0.296882,1.10798,117.076,-141.31)">
        <path d="M470,309.875C470,291.179 454.821,276 436.125,276L103.875,276C85.179,276 70,291.179 70,309.875L70,642.125C70,660.821 85.179,676 103.875,676L436.125,676C454.821,676 470,660.821 470,642.125L470,309.875ZM430,507.856C430,501.313 424.687,496 418.144,496L301.856,496C295.313,496 290,501.313 290,507.856L290,624.144C290,630.687 295.313,636 301.856,636L418.144,636C424.687,636 430,630.687 430,624.144L430,507.856ZM250,507.856C250,501.313 244.687,496 238.144,496L121.856,496C115.313,496 110,501.313 110,507.856L110,624.144C110,630.687 115.313,636 121.856,636L238.144,636C244.687,636 250,630.687 250,624.144L250,507.856ZM430,327.856C430,321.313 424.687,316 418.144,316L301.856,316C295.313,316 290,321.313 290,327.856L290,444.144C290,450.687 295.313,456 301.856,456L418.144,456C424.687,456 430,450.687 430,444.144L430,327.856ZM250,327.856C250,321.313 244.687,316 238.144,316L121.856,316C115.313,316 110,321.313 110,327.856L110,444.144C110,450.687 115.313,456 121.856,456L238.144,456C244.687,456 250,450.687 250,444.144L250,327.856Z" style="fill:rgb(92,201,227);"/>
    </g>
</svg>
